<?xml version="1.0" encoding="iso-8859-1"?>
<!-- Generator: Adobe Illustrator 19.0.0, SVG Export Plug-In . SVG Version: 6.00 Build 0)  -->
<svg version="1.1" id="Capa_1" xmlns="http://www.w3.org/2000/svg" xmlns:xlink="http://www.w3.org/1999/xlink" x="0px" y="0px"
	 viewBox="0 0 476.996 476.996" style="enable-background:new 0 0 476.996 476.996;" xml:space="preserve">
<path style="fill:#4DCFE0;" d="M282.906,476.996H194.09c-7.837,0-14.629-6.269-15.673-14.106L164.31,327.053H144.98
	c-8.882,0-15.673-6.792-15.673-15.673v-67.918c0-60.082,49.11-109.192,109.192-109.192S347.69,183.38,347.69,243.461v67.918
	c0,8.882-6.792,15.673-15.673,15.673h-19.331L298.58,462.89C297.535,470.727,290.743,476.996,282.906,476.996z M208.196,445.649
	H268.8l14.106-135.837c1.045-7.837,7.314-14.106,15.673-14.106h17.763v-52.245c0-42.841-35.004-77.845-77.845-77.845
	s-77.845,35.004-77.845,77.845v52.245h17.763c7.837,0,14.629,6.269,15.673,14.106L208.196,445.649z"/>
<path style="fill:#1185E0;" d="M238.498,125.388c-34.482,0-62.694-28.212-62.694-62.694S204.016,0,238.498,0
	s62.694,28.212,62.694,62.694S272.98,125.388,238.498,125.388z M238.498,31.347c-17.241,0-31.347,14.106-31.347,31.347
	s14.106,31.347,31.347,31.347s31.347-14.106,31.347-31.347S255.739,31.347,238.498,31.347z"/>
<g>
</g>
<g>
</g>
<g>
</g>
<g>
</g>
<g>
</g>
<g>
</g>
<g>
</g>
<g>
</g>
<g>
</g>
<g>
</g>
<g>
</g>
<g>
</g>
<g>
</g>
<g>
</g>
<g>
</g>
</svg>
