<?xml version="1.0"?>
<svg xmlns="http://www.w3.org/2000/svg" xmlns:xlink="http://www.w3.org/1999/xlink" xmlns:svgjs="http://svgjs.com/svgjs" version="1.1" width="512" height="512" x="0" y="0" viewBox="0 0 512 512" style="enable-background:new 0 0 512 512" xml:space="preserve" class=""><g>
<path xmlns="http://www.w3.org/2000/svg" style="" d="M423.517,329.306c-27.177-27.177-59.8-46.921-95.402-58.25c43.598-25.067,73.02-72.122,73.02-125.919  C401.137,65.109,336.029,0,256,0S110.863,65.109,110.863,145.137c0,53.798,29.423,100.852,73.02,125.919  c-35.602,11.328-68.224,31.072-95.402,58.25c-44.745,44.746-69.387,104.237-69.387,167.516c0,8.382,6.796,15.178,15.178,15.178  h443.452c8.382,0,15.178-6.796,15.178-15.178C492.904,433.542,468.262,374.051,423.517,329.306z" fill="#70affe" data-original="#feeb70" class=""/>
<g xmlns="http://www.w3.org/2000/svg">
	<path style="" d="M256.001,224.984c7.939,0,15.545-6.981,15.178-15.178c-0.368-8.223-6.669-15.178-15.178-15.178   c-7.939,0-15.545,6.981-15.178,15.178C241.191,218.03,247.492,224.984,256.001,224.984L256.001,224.984z" fill="#e53045" data-original="#ff52a8" class=""/>
	<path style="" d="M256,182.487c-8.382,0-15.178-6.796-15.178-15.178v-22.962c0-8.382,6.796-15.178,15.178-15.178   c9.242,0,16.761-7.519,16.761-16.762S265.241,95.646,256,95.646s-16.761,7.519-16.761,16.762c0,8.382-6.796,15.178-15.178,15.178   s-15.178-6.796-15.178-15.178c0-25.981,21.137-47.118,47.117-47.118s47.117,21.137,47.117,47.118   c0,20.673-13.382,38.279-31.939,44.609v10.293C271.178,175.691,264.382,182.487,256,182.487z" fill="#e53045" data-original="#ff52a8" class=""/>
</g>
<path xmlns="http://www.w3.org/2000/svg" style="" d="M328.116,271.056c43.598-25.067,73.02-72.122,73.02-125.919C401.137,65.109,336.029,0.001,256.002,0  v512h221.725c8.382,0,15.178-6.796,15.178-15.178c0-63.28-24.643-122.772-69.387-167.516  C396.341,302.129,363.717,282.384,328.116,271.056z" fill="#7074fe" data-original="#fcb629" class=""/>
<g xmlns="http://www.w3.org/2000/svg">
	<path style="" d="M256.002,65.29v30.356c9.241,0.001,16.76,7.52,16.76,16.762s-7.518,16.761-16.76,16.762v53.318   c8.381-0.001,15.177-6.796,15.177-15.178v-10.293c18.558-6.33,31.939-23.937,31.939-44.609   C303.118,86.427,281.982,65.291,256.002,65.29z" fill="#e53045" data-original="#e53045" class=""/>
	<path style="" d="M271.18,209.806c-0.368-8.223-6.669-15.178-15.178-15.178v30.356   C263.941,224.984,271.546,218.003,271.18,209.806z" fill="#e53045" data-original="#e53045" class=""/>
</g>
<g xmlns="http://www.w3.org/2000/svg">
</g>
<g xmlns="http://www.w3.org/2000/svg">
</g>
<g xmlns="http://www.w3.org/2000/svg">
</g>
<g xmlns="http://www.w3.org/2000/svg">
</g>
<g xmlns="http://www.w3.org/2000/svg">
</g>
<g xmlns="http://www.w3.org/2000/svg">
</g>
<g xmlns="http://www.w3.org/2000/svg">
</g>
<g xmlns="http://www.w3.org/2000/svg">
</g>
<g xmlns="http://www.w3.org/2000/svg">
</g>
<g xmlns="http://www.w3.org/2000/svg">
</g>
<g xmlns="http://www.w3.org/2000/svg">
</g>
<g xmlns="http://www.w3.org/2000/svg">
</g>
<g xmlns="http://www.w3.org/2000/svg">
</g>
<g xmlns="http://www.w3.org/2000/svg">
</g>
<g xmlns="http://www.w3.org/2000/svg">
</g>
</g></svg>
