<svg id="Capa_1" enable-background="new 0 0 512 512" height="512" viewBox="0 0 512 512" width="512" xmlns="http://www.w3.org/2000/svg" xmlns:xlink="http://www.w3.org/1999/xlink"><linearGradient id="SVGID_1_" gradientUnits="userSpaceOnUse" x1="256" x2="256" y1="512" y2="0"><stop offset="0" stop-color="#5558ff"/><stop offset="1" stop-color="#00c0ff"/></linearGradient><linearGradient id="SVGID_2_" gradientUnits="userSpaceOnUse" x1="225.5" x2="225.5" y1="451" y2="0"><stop offset="0" stop-color="#addcff"/><stop offset=".5028" stop-color="#eaf6ff"/><stop offset="1" stop-color="#eaf6ff"/></linearGradient><g><g><g><path d="m497 0h-115.9l-95.1 75-45 4.72v-64.72h-210v75h112l-143 15v392c0 8.399 6.599 15 15 15h482c8.401 0 15-6.601 15-15v-482c0-8.401-6.599-15-15-15z" fill="url(#SVGID_1_)"/></g></g><g><g><path d="m349.425 94.755 31.675-94.755h-366.1c-8.284 0-15 6.716-15 15v90h335.198c6.452 0 12.181-4.125 14.227-10.245zm-273.425-34.755c-8.401 0-15-6.601-15-15 0-8.401 6.599-15 15-15s15 6.599 15 15c0 8.399-6.599 15-15 15zm60 0c-8.401 0-15-6.601-15-15 0-8.401 6.599-15 15-15s15 6.599 15 15c0 8.399-6.599 15-15 15zm60 0c-8.401 0-15-6.601-15-15 0-8.401 6.599-15 15-15s15 6.599 15 15c0 8.399-6.599 15-15 15zm240 91h-360c-8.401 0-15 6.599-15 15v270c0 8.399 6.599 15 15 15h360c8.401 0 15-6.601 15-15v-270c0-8.401-6.599-15-15-15zm-225 75c0-5.102 2.701-9.9 7.2-12.9 4.2-2.701 9.9-2.701 14.399-.601l90 45c5.101 2.701 8.401 7.801 8.401 13.501s-3.3 10.8-8.401 13.5l-90 45c-5.53 2.369-10.696 1.713-14.399-.601-4.499-3.001-7.2-7.8-7.2-12.9zm165 165h-240c-8.401 0-15-6.601-15-15 0-8.401 6.599-15 15-15h15v-15c0-8.401 6.599-15 15-15s15 6.599 15 15v15h195c8.401 0 15 6.599 15 15 0 8.399-6.599 15-15 15z" fill="url(#SVGID_2_)"/></g></g></g></svg>