<svg id="Capa_1" enable-background="new 0 0 512 512" height="512" viewBox="0 0 512 512" width="512" xmlns="http://www.w3.org/2000/svg" xmlns:xlink="http://www.w3.org/1999/xlink"><linearGradient id="SVGID_1_" gradientUnits="userSpaceOnUse" x1="256" x2="256" y1="512" y2="0"><stop offset="0" stop-color="#5558ff"/><stop offset="1" stop-color="#00c0ff"/></linearGradient><linearGradient id="SVGID_2_" gradientUnits="userSpaceOnUse" x1="195.5" x2="195.5" y1="421" y2="0"><stop offset="0" stop-color="#addcff"/><stop offset=".5028" stop-color="#eaf6ff"/><stop offset="1" stop-color="#eaf6ff"/></linearGradient><g><g><g><path d="m497 0h-115.901l-95.099 75-45 4.72v-64.72h-211v75h113l-143 15v271c0 8.399 6.599 15 15 15h161.8c6.301 0 11.7-3.9 14.101-9.6 1.875-5.356.872-11.185-2.777-15.363 18.318 15.559 42.019 24.963 67.876 24.963s49.558-9.404 67.877-24.963c-3.649 4.179-4.652 10.007-2.777 15.363 2.401 5.7 7.8 9.6 14.101 9.6h161.799c8.401 0 15-6.601 15-15v-361c0-8.401-6.599-15-15-15zm-241 181c-57.891 0-105 47.109-105 105 0-57.9 47.1-105 105-105s105 47.1 105 105c0-57.891-47.109-105-105-105zm-15 225v76h-45c-8.291 0-15 6.709-15 15s6.709 15 15 15h120c8.291 0 15-6.709 15-15s-6.709-15-15-15h-45v-76c0-8.291-6.709-15-15-15s-15 6.709-15 15z" fill="url(#SVGID_1_)"/></g></g><g><g><path d="m349.424 94.755 31.675-94.755h-366.099c-8.284 0-15 6.716-15 15v90h335.198c6.452 0 12.181-4.125 14.226-10.245zm-273.424-34.755c-8.401 0-15-6.601-15-15 0-8.401 6.599-15 15-15s15 6.599 15 15c0 8.399-6.599 15-15 15zm60 0c-8.401 0-15-6.601-15-15 0-8.401 6.599-15 15-15s15 6.599 15 15c0 8.399-6.599 15-15 15zm60 0c-8.401 0-15-6.601-15-15 0-8.401 6.599-15 15-15s15 6.599 15 15c0 8.399-6.599 15-15 15zm60 211c-8.401 0-15 6.599-15 15 0 8.399 6.599 15 15 15s15-6.601 15-15c0-8.401-6.599-15-15-15zm0-120c-74.7 0-135 60.3-135 135s60.3 135 135 135 135-60.3 135-135-60.3-135-135-135zm0 210c-41.4 0-75-33.6-75-75s33.6-75 75-75 75 33.6 75 75-33.6 75-75 75z" fill="url(#SVGID_2_)"/></g></g></g></svg>